<svg width="339" height="472" viewBox="0 0 339 472" fill="none" xmlns="http://www.w3.org/2000/svg">
<g filter="url(#filter0_d_16_2)">
<rect x="8" y="6" width="322.649" height="456" rx="8" fill="white"/>
<path d="M154.456 41.152V44.44H147.592V47.992H152.728V51.184H147.592V58H143.488V41.152H154.456ZM160.717 46.84C161.197 46.104 161.797 45.528 162.517 45.112C163.237 44.68 164.037 44.464 164.917 44.464V48.808H163.789C162.765 48.808 161.997 49.032 161.485 49.48C160.973 49.912 160.717 50.68 160.717 51.784V58H156.613V44.608H160.717V46.84ZM179.503 51.088C179.503 51.472 179.479 51.872 179.431 52.288H170.143C170.207 53.12 170.471 53.76 170.935 54.208C171.415 54.64 171.999 54.856 172.687 54.856C173.711 54.856 174.423 54.424 174.823 53.56H179.191C178.967 54.44 178.559 55.232 177.967 55.936C177.391 56.64 176.663 57.192 175.783 57.592C174.903 57.992 173.919 58.192 172.831 58.192C171.519 58.192 170.351 57.912 169.327 57.352C168.303 56.792 167.503 55.992 166.927 54.952C166.351 53.912 166.063 52.696 166.063 51.304C166.063 49.912 166.343 48.696 166.903 47.656C167.479 46.616 168.279 45.816 169.303 45.256C170.327 44.696 171.503 44.416 172.831 44.416C174.127 44.416 175.279 44.688 176.287 45.232C177.295 45.776 178.079 46.552 178.639 47.56C179.215 48.568 179.503 49.744 179.503 51.088ZM175.303 50.008C175.303 49.304 175.063 48.744 174.583 48.328C174.103 47.912 173.503 47.704 172.783 47.704C172.095 47.704 171.511 47.904 171.031 48.304C170.567 48.704 170.279 49.272 170.167 50.008H175.303ZM194.292 51.088C194.292 51.472 194.268 51.872 194.22 52.288H184.932C184.996 53.12 185.26 53.76 185.724 54.208C186.204 54.64 186.788 54.856 187.476 54.856C188.5 54.856 189.212 54.424 189.612 53.56H193.98C193.756 54.44 193.348 55.232 192.756 55.936C192.18 56.64 191.452 57.192 190.572 57.592C189.692 57.992 188.708 58.192 187.62 58.192C186.308 58.192 185.14 57.912 184.116 57.352C183.092 56.792 182.292 55.992 181.716 54.952C181.14 53.912 180.852 52.696 180.852 51.304C180.852 49.912 181.132 48.696 181.692 47.656C182.268 46.616 183.068 45.816 184.092 45.256C185.116 44.696 186.292 44.416 187.62 44.416C188.916 44.416 190.068 44.688 191.076 45.232C192.084 45.776 192.868 46.552 193.428 47.56C194.004 48.568 194.292 49.744 194.292 51.088ZM190.092 50.008C190.092 49.304 189.852 48.744 189.372 48.328C188.892 47.912 188.292 47.704 187.572 47.704C186.884 47.704 186.3 47.904 185.82 48.304C185.356 48.704 185.068 49.272 184.956 50.008H190.092Z" fill="#22343D"/>
<path d="M87.816 98.256C88.2213 98.32 88.5893 98.4853 88.92 98.752C89.2613 99.0187 89.528 99.3493 89.72 99.744C89.9227 100.139 90.024 100.56 90.024 101.008C90.024 101.573 89.88 102.085 89.592 102.544C89.304 102.992 88.8827 103.349 88.328 103.616C87.784 103.872 87.1387 104 86.392 104H82.232V92.848H86.232C86.9893 92.848 87.6347 92.976 88.168 93.232C88.7013 93.4773 89.1013 93.8133 89.368 94.24C89.6347 94.6667 89.768 95.1467 89.768 95.68C89.768 96.3413 89.5867 96.8907 89.224 97.328C88.872 97.7547 88.4027 98.064 87.816 98.256ZM83.688 97.664H86.136C86.8187 97.664 87.3467 97.504 87.72 97.184C88.0933 96.864 88.28 96.4213 88.28 95.856C88.28 95.2907 88.0933 94.848 87.72 94.528C87.3467 94.208 86.808 94.048 86.104 94.048H83.688V97.664ZM86.264 102.8C86.9893 102.8 87.5547 102.629 87.96 102.288C88.3653 101.947 88.568 101.472 88.568 100.864C88.568 100.245 88.3547 99.76 87.928 99.408C87.5013 99.0453 86.9307 98.864 86.216 98.864H83.688V102.8H86.264ZM93.5005 96.656C93.7565 96.1547 94.1192 95.7653 94.5885 95.488C95.0685 95.2107 95.6498 95.072 96.3325 95.072V96.576H95.9485C94.3165 96.576 93.5005 97.4613 93.5005 99.232V104H92.0445V95.232H93.5005V96.656ZM98.7653 93.808C98.4879 93.808 98.2533 93.712 98.0613 93.52C97.8693 93.328 97.7733 93.0933 97.7733 92.816C97.7733 92.5387 97.8693 92.304 98.0613 92.112C98.2533 91.92 98.4879 91.824 98.7653 91.824C99.0319 91.824 99.2559 91.92 99.4373 92.112C99.6293 92.304 99.7253 92.5387 99.7253 92.816C99.7253 93.0933 99.6293 93.328 99.4373 93.52C99.2559 93.712 99.0319 93.808 98.7653 93.808ZM99.4693 95.232V104H98.0133V95.232H99.4693ZM109.951 99.28C109.951 99.5573 109.935 99.8507 109.903 100.16H102.895C102.948 101.024 103.241 101.701 103.775 102.192C104.319 102.672 104.975 102.912 105.743 102.912C106.372 102.912 106.895 102.768 107.311 102.48C107.737 102.181 108.036 101.787 108.207 101.296H109.775C109.54 102.139 109.071 102.827 108.367 103.36C107.663 103.883 106.788 104.144 105.743 104.144C104.911 104.144 104.164 103.957 103.503 103.584C102.852 103.211 102.34 102.683 101.967 102C101.593 101.307 101.407 100.507 101.407 99.6C101.407 98.6933 101.588 97.8987 101.951 97.216C102.313 96.5333 102.82 96.0107 103.471 95.648C104.132 95.2747 104.889 95.088 105.743 95.088C106.575 95.088 107.311 95.2693 107.951 95.632C108.591 95.9947 109.081 96.496 109.423 97.136C109.775 97.7653 109.951 98.48 109.951 99.28ZM108.447 98.976C108.447 98.4213 108.324 97.9467 108.079 97.552C107.833 97.1467 107.497 96.8427 107.071 96.64C106.655 96.4267 106.191 96.32 105.679 96.32C104.943 96.32 104.313 96.5547 103.791 97.024C103.279 97.4933 102.985 98.144 102.911 98.976H108.447ZM115.441 96.432H113.601V104H112.145V96.432H111.009V95.232H112.145V94.608C112.145 93.6267 112.395 92.912 112.897 92.464C113.409 92.0053 114.225 91.776 115.345 91.776V92.992C114.705 92.992 114.251 93.12 113.985 93.376C113.729 93.6213 113.601 94.032 113.601 94.608V95.232H115.441V96.432ZM122.86 96.848C123.148 96.3467 123.575 95.9307 124.14 95.6C124.716 95.2587 125.383 95.088 126.14 95.088C126.919 95.088 127.623 95.2747 128.252 95.648C128.892 96.0213 129.393 96.5493 129.756 97.232C130.119 97.904 130.3 98.688 130.3 99.584C130.3 100.469 130.119 101.259 129.756 101.952C129.393 102.645 128.892 103.184 128.252 103.568C127.623 103.952 126.919 104.144 126.14 104.144C125.393 104.144 124.732 103.979 124.156 103.648C123.591 103.307 123.159 102.885 122.86 102.384V108.16H121.404V95.232H122.86V96.848ZM128.812 99.584C128.812 98.9227 128.679 98.3467 128.412 97.856C128.145 97.3653 127.783 96.992 127.324 96.736C126.876 96.48 126.38 96.352 125.836 96.352C125.303 96.352 124.807 96.4853 124.348 96.752C123.9 97.008 123.537 97.3867 123.26 97.888C122.993 98.3787 122.86 98.9493 122.86 99.6C122.86 100.261 122.993 100.843 123.26 101.344C123.537 101.835 123.9 102.213 124.348 102.48C124.807 102.736 125.303 102.864 125.836 102.864C126.38 102.864 126.876 102.736 127.324 102.48C127.783 102.213 128.145 101.835 128.412 101.344C128.679 100.843 128.812 100.256 128.812 99.584ZM133.672 96.656C133.928 96.1547 134.291 95.7653 134.76 95.488C135.24 95.2107 135.822 95.072 136.504 95.072V96.576H136.12C134.488 96.576 133.672 97.4613 133.672 99.232V104H132.216V95.232H133.672V96.656ZM138.937 93.808C138.66 93.808 138.425 93.712 138.233 93.52C138.041 93.328 137.945 93.0933 137.945 92.816C137.945 92.5387 138.041 92.304 138.233 92.112C138.425 91.92 138.66 91.824 138.937 91.824C139.204 91.824 139.428 91.92 139.609 92.112C139.801 92.304 139.897 92.5387 139.897 92.816C139.897 93.0933 139.801 93.328 139.609 93.52C139.428 93.712 139.204 93.808 138.937 93.808ZM139.641 95.232V104H138.185V95.232H139.641ZM141.579 99.6C141.579 98.6933 141.76 97.904 142.123 97.232C142.485 96.5493 142.987 96.0213 143.627 95.648C144.277 95.2747 145.019 95.088 145.851 95.088C146.928 95.088 147.813 95.3493 148.507 95.872C149.211 96.3947 149.675 97.12 149.899 98.048H148.331C148.181 97.5147 147.888 97.0933 147.451 96.784C147.024 96.4747 146.491 96.32 145.851 96.32C145.019 96.32 144.347 96.608 143.835 97.184C143.323 97.7493 143.067 98.5547 143.067 99.6C143.067 100.656 143.323 101.472 143.835 102.048C144.347 102.624 145.019 102.912 145.851 102.912C146.491 102.912 147.024 102.763 147.451 102.464C147.877 102.165 148.171 101.739 148.331 101.184H149.899C149.664 102.08 149.195 102.8 148.491 103.344C147.787 103.877 146.907 104.144 145.851 104.144C145.019 104.144 144.277 103.957 143.627 103.584C142.987 103.211 142.485 102.683 142.123 102C141.76 101.317 141.579 100.517 141.579 99.6ZM159.841 99.28C159.841 99.5573 159.825 99.8507 159.793 100.16H152.785C152.839 101.024 153.132 101.701 153.665 102.192C154.209 102.672 154.865 102.912 155.633 102.912C156.263 102.912 156.785 102.768 157.201 102.48C157.628 102.181 157.927 101.787 158.097 101.296H159.665C159.431 102.139 158.961 102.827 158.257 103.36C157.553 103.883 156.679 104.144 155.633 104.144C154.801 104.144 154.055 103.957 153.393 103.584C152.743 103.211 152.231 102.683 151.857 102C151.484 101.307 151.297 100.507 151.297 99.6C151.297 98.6933 151.479 97.8987 151.841 97.216C152.204 96.5333 152.711 96.0107 153.361 95.648C154.023 95.2747 154.78 95.088 155.633 95.088C156.465 95.088 157.201 95.2693 157.841 95.632C158.481 95.9947 158.972 96.496 159.313 97.136C159.665 97.7653 159.841 98.48 159.841 99.28ZM158.337 98.976C158.337 98.4213 158.215 97.9467 157.969 97.552C157.724 97.1467 157.388 96.8427 156.961 96.64C156.545 96.4267 156.081 96.32 155.569 96.32C154.833 96.32 154.204 96.5547 153.681 97.024C153.169 97.4933 152.876 98.144 152.801 98.976H158.337ZM165.485 99.584C165.485 98.688 165.666 97.904 166.029 97.232C166.392 96.5493 166.888 96.0213 167.517 95.648C168.157 95.2747 168.872 95.088 169.661 95.088C170.344 95.088 170.978 95.248 171.565 95.568C172.152 95.8773 172.6 96.288 172.909 96.8V92.16H174.381V104H172.909V102.352C172.621 102.875 172.194 103.307 171.629 103.648C171.064 103.979 170.402 104.144 169.645 104.144C168.866 104.144 168.157 103.952 167.517 103.568C166.888 103.184 166.392 102.645 166.029 101.952C165.666 101.259 165.485 100.469 165.485 99.584ZM172.909 99.6C172.909 98.9387 172.776 98.3627 172.509 97.872C172.242 97.3813 171.88 97.008 171.421 96.752C170.973 96.4853 170.477 96.352 169.933 96.352C169.389 96.352 168.893 96.48 168.445 96.736C167.997 96.992 167.64 97.3653 167.373 97.856C167.106 98.3467 166.973 98.9227 166.973 99.584C166.973 100.256 167.106 100.843 167.373 101.344C167.64 101.835 167.997 102.213 168.445 102.48C168.893 102.736 169.389 102.864 169.933 102.864C170.477 102.864 170.973 102.736 171.421 102.48C171.88 102.213 172.242 101.835 172.509 101.344C172.776 100.843 172.909 100.261 172.909 99.6ZM184.841 99.28C184.841 99.5573 184.825 99.8507 184.793 100.16H177.785C177.839 101.024 178.132 101.701 178.665 102.192C179.209 102.672 179.865 102.912 180.633 102.912C181.263 102.912 181.785 102.768 182.201 102.48C182.628 102.181 182.927 101.787 183.097 101.296H184.665C184.431 102.139 183.961 102.827 183.257 103.36C182.553 103.883 181.679 104.144 180.633 104.144C179.801 104.144 179.055 103.957 178.393 103.584C177.743 103.211 177.231 102.683 176.857 102C176.484 101.307 176.297 100.507 176.297 99.6C176.297 98.6933 176.479 97.8987 176.841 97.216C177.204 96.5333 177.711 96.0107 178.361 95.648C179.023 95.2747 179.78 95.088 180.633 95.088C181.465 95.088 182.201 95.2693 182.841 95.632C183.481 95.9947 183.972 96.496 184.313 97.136C184.665 97.7653 184.841 98.48 184.841 99.28ZM183.337 98.976C183.337 98.4213 183.215 97.9467 182.969 97.552C182.724 97.1467 182.388 96.8427 181.961 96.64C181.545 96.4267 181.081 96.32 180.569 96.32C179.833 96.32 179.204 96.5547 178.681 97.024C178.169 97.4933 177.876 98.144 177.801 98.976H183.337ZM189.867 104.144C189.195 104.144 188.593 104.032 188.059 103.808C187.526 103.573 187.105 103.253 186.795 102.848C186.486 102.432 186.315 101.957 186.283 101.424H187.787C187.83 101.861 188.033 102.219 188.395 102.496C188.769 102.773 189.254 102.912 189.851 102.912C190.406 102.912 190.843 102.789 191.163 102.544C191.483 102.299 191.643 101.989 191.643 101.616C191.643 101.232 191.473 100.949 191.131 100.768C190.79 100.576 190.262 100.389 189.547 100.208C188.897 100.037 188.363 99.8667 187.947 99.696C187.542 99.5147 187.19 99.2533 186.891 98.912C186.603 98.56 186.459 98.1013 186.459 97.536C186.459 97.088 186.593 96.6773 186.859 96.304C187.126 95.9307 187.505 95.6373 187.995 95.424C188.486 95.2 189.046 95.088 189.675 95.088C190.646 95.088 191.43 95.3333 192.027 95.824C192.625 96.3147 192.945 96.9867 192.987 97.84H191.531C191.499 97.3813 191.313 97.0133 190.971 96.736C190.641 96.4587 190.193 96.32 189.627 96.32C189.105 96.32 188.689 96.432 188.379 96.656C188.07 96.88 187.915 97.1733 187.915 97.536C187.915 97.824 188.006 98.064 188.187 98.256C188.379 98.4373 188.614 98.5867 188.891 98.704C189.179 98.8107 189.574 98.9333 190.075 99.072C190.705 99.2427 191.217 99.4133 191.611 99.584C192.006 99.744 192.342 99.9893 192.619 100.32C192.907 100.651 193.057 101.083 193.067 101.616C193.067 102.096 192.934 102.528 192.667 102.912C192.401 103.296 192.022 103.6 191.531 103.824C191.051 104.037 190.497 104.144 189.867 104.144ZM194.579 99.6C194.579 98.6933 194.76 97.904 195.123 97.232C195.485 96.5493 195.987 96.0213 196.627 95.648C197.277 95.2747 198.019 95.088 198.851 95.088C199.928 95.088 200.813 95.3493 201.507 95.872C202.211 96.3947 202.675 97.12 202.899 98.048H201.331C201.181 97.5147 200.888 97.0933 200.451 96.784C200.024 96.4747 199.491 96.32 198.851 96.32C198.019 96.32 197.347 96.608 196.835 97.184C196.323 97.7493 196.067 98.5547 196.067 99.6C196.067 100.656 196.323 101.472 196.835 102.048C197.347 102.624 198.019 102.912 198.851 102.912C199.491 102.912 200.024 102.763 200.451 102.464C200.877 102.165 201.171 101.739 201.331 101.184H202.899C202.664 102.08 202.195 102.8 201.491 103.344C200.787 103.877 199.907 104.144 198.851 104.144C198.019 104.144 197.277 103.957 196.627 103.584C195.987 103.211 195.485 102.683 195.123 102C194.76 101.317 194.579 100.517 194.579 99.6ZM206.297 96.656C206.553 96.1547 206.916 95.7653 207.385 95.488C207.865 95.2107 208.447 95.072 209.129 95.072V96.576H208.745C207.113 96.576 206.297 97.4613 206.297 99.232V104H204.841V95.232H206.297V96.656ZM211.562 93.808C211.285 93.808 211.05 93.712 210.858 93.52C210.666 93.328 210.57 93.0933 210.57 92.816C210.57 92.5387 210.666 92.304 210.858 92.112C211.05 91.92 211.285 91.824 211.562 91.824C211.829 91.824 212.053 91.92 212.234 92.112C212.426 92.304 212.522 92.5387 212.522 92.816C212.522 93.0933 212.426 93.328 212.234 93.52C212.053 93.712 211.829 93.808 211.562 93.808ZM212.266 95.232V104H210.81V95.232H212.266ZM216.204 96.848C216.492 96.3467 216.918 95.9307 217.484 95.6C218.06 95.2587 218.726 95.088 219.484 95.088C220.262 95.088 220.966 95.2747 221.596 95.648C222.236 96.0213 222.737 96.5493 223.1 97.232C223.462 97.904 223.644 98.688 223.644 99.584C223.644 100.469 223.462 101.259 223.1 101.952C222.737 102.645 222.236 103.184 221.596 103.568C220.966 103.952 220.262 104.144 219.484 104.144C218.737 104.144 218.076 103.979 217.5 103.648C216.934 103.307 216.502 102.885 216.204 102.384V108.16H214.748V95.232H216.204V96.848ZM222.156 99.584C222.156 98.9227 222.022 98.3467 221.756 97.856C221.489 97.3653 221.126 96.992 220.668 96.736C220.22 96.48 219.724 96.352 219.18 96.352C218.646 96.352 218.15 96.4853 217.692 96.752C217.244 97.008 216.881 97.3867 216.604 97.888C216.337 98.3787 216.204 98.9493 216.204 99.6C216.204 100.261 216.337 100.843 216.604 101.344C216.881 101.835 217.244 102.213 217.692 102.48C218.15 102.736 218.646 102.864 219.18 102.864C219.724 102.864 220.22 102.736 220.668 102.48C221.126 102.213 221.489 101.835 221.756 101.344C222.022 100.843 222.156 100.256 222.156 99.584ZM227.336 96.432V101.6C227.336 102.027 227.427 102.331 227.608 102.512C227.789 102.683 228.104 102.768 228.552 102.768H229.624V104H228.312C227.501 104 226.893 103.813 226.488 103.44C226.083 103.067 225.88 102.453 225.88 101.6V96.432H224.744V95.232H225.88V93.024H227.336V95.232H229.624V96.432H227.336ZM232.14 93.808C231.863 93.808 231.628 93.712 231.436 93.52C231.244 93.328 231.148 93.0933 231.148 92.816C231.148 92.5387 231.244 92.304 231.436 92.112C231.628 91.92 231.863 91.824 232.14 91.824C232.407 91.824 232.631 91.92 232.812 92.112C233.004 92.304 233.1 92.5387 233.1 92.816C233.1 93.0933 233.004 93.328 232.812 93.52C232.631 93.712 232.407 93.808 232.14 93.808ZM232.844 95.232V104H231.388V95.232H232.844ZM239.15 104.144C238.328 104.144 237.582 103.957 236.91 103.584C236.248 103.211 235.726 102.683 235.342 102C234.968 101.307 234.782 100.507 234.782 99.6C234.782 98.704 234.974 97.9147 235.358 97.232C235.752 96.5387 236.286 96.0107 236.958 95.648C237.63 95.2747 238.382 95.088 239.214 95.088C240.046 95.088 240.798 95.2747 241.47 95.648C242.142 96.0107 242.67 96.5333 243.054 97.216C243.448 97.8987 243.646 98.6933 243.646 99.6C243.646 100.507 243.443 101.307 243.038 102C242.643 102.683 242.104 103.211 241.422 103.584C240.739 103.957 239.982 104.144 239.15 104.144ZM239.15 102.864C239.672 102.864 240.163 102.741 240.622 102.496C241.08 102.251 241.448 101.883 241.726 101.392C242.014 100.901 242.158 100.304 242.158 99.6C242.158 98.896 242.019 98.2987 241.742 97.808C241.464 97.3173 241.102 96.9547 240.654 96.72C240.206 96.4747 239.72 96.352 239.198 96.352C238.664 96.352 238.174 96.4747 237.726 96.72C237.288 96.9547 236.936 97.3173 236.67 97.808C236.403 98.2987 236.27 98.896 236.27 99.6C236.27 100.315 236.398 100.917 236.654 101.408C236.92 101.899 237.272 102.267 237.71 102.512C238.147 102.747 238.627 102.864 239.15 102.864ZM249.832 95.072C250.899 95.072 251.763 95.3973 252.424 96.048C253.085 96.688 253.416 97.616 253.416 98.832V104H251.976V99.04C251.976 98.1653 251.757 97.4987 251.32 97.04C250.883 96.5707 250.285 96.336 249.528 96.336C248.76 96.336 248.147 96.576 247.688 97.056C247.24 97.536 247.016 98.2347 247.016 99.152V104H245.56V95.232H247.016V96.48C247.304 96.032 247.693 95.6853 248.184 95.44C248.685 95.1947 249.235 95.072 249.832 95.072Z" fill="#22343D"/>
<g clip-path="url(#clip0_16_2)">
<path d="M156.278 184.182V162.364H157.676V184.182H156.278ZM159.986 169.565C159.918 168.878 159.625 168.344 159.108 167.963C158.591 167.582 157.889 167.392 157.003 167.392C156.401 167.392 155.892 167.477 155.477 167.648C155.063 167.812 154.744 168.043 154.523 168.338C154.307 168.634 154.199 168.969 154.199 169.344C154.188 169.656 154.253 169.929 154.395 170.162C154.543 170.395 154.744 170.597 155 170.767C155.256 170.932 155.551 171.077 155.886 171.202C156.222 171.321 156.58 171.423 156.96 171.509L158.528 171.884C159.29 172.054 159.989 172.281 160.625 172.565C161.261 172.849 161.813 173.199 162.278 173.614C162.744 174.028 163.105 174.517 163.361 175.08C163.622 175.642 163.756 176.287 163.761 177.014C163.756 178.082 163.483 179.009 162.943 179.793C162.409 180.571 161.636 181.176 160.625 181.608C159.619 182.034 158.406 182.247 156.986 182.247C155.577 182.247 154.349 182.031 153.304 181.599C152.264 181.168 151.452 180.528 150.866 179.682C150.287 178.83 149.983 177.776 149.955 176.52H153.526C153.565 177.105 153.733 177.594 154.028 177.986C154.33 178.372 154.73 178.665 155.23 178.864C155.736 179.057 156.307 179.153 156.943 179.153C157.568 179.153 158.111 179.062 158.571 178.881C159.037 178.699 159.398 178.446 159.653 178.122C159.909 177.798 160.037 177.426 160.037 177.006C160.037 176.614 159.92 176.284 159.688 176.017C159.46 175.75 159.125 175.523 158.682 175.335C158.244 175.148 157.707 174.977 157.071 174.824L155.17 174.347C153.699 173.989 152.537 173.429 151.685 172.668C150.832 171.906 150.409 170.881 150.415 169.591C150.409 168.534 150.69 167.611 151.259 166.821C151.832 166.031 152.619 165.415 153.619 164.972C154.619 164.528 155.756 164.307 157.028 164.307C158.324 164.307 159.455 164.528 160.42 164.972C161.392 165.415 162.148 166.031 162.688 166.821C163.227 167.611 163.506 168.526 163.523 169.565H159.986Z" fill="#02897A"/>
</g>
<path d="M157.688 198.112C157.688 199.04 157.368 199.813 156.728 200.432C156.099 201.04 155.133 201.344 153.832 201.344H151.688V206H150.232V194.848H153.832C155.091 194.848 156.045 195.152 156.696 195.76C157.357 196.368 157.688 197.152 157.688 198.112ZM153.832 200.144C154.643 200.144 155.24 199.968 155.624 199.616C156.008 199.264 156.2 198.763 156.2 198.112C156.2 196.736 155.411 196.048 153.832 196.048H151.688V200.144H153.832ZM167.598 201.28C167.598 201.557 167.582 201.851 167.55 202.16H160.542C160.595 203.024 160.888 203.701 161.422 204.192C161.966 204.672 162.622 204.912 163.39 204.912C164.019 204.912 164.542 204.768 164.958 204.48C165.384 204.181 165.683 203.787 165.854 203.296H167.422C167.187 204.139 166.718 204.827 166.014 205.36C165.31 205.883 164.435 206.144 163.39 206.144C162.558 206.144 161.811 205.957 161.15 205.584C160.499 205.211 159.987 204.683 159.614 204C159.24 203.307 159.054 202.507 159.054 201.6C159.054 200.693 159.235 199.899 159.598 199.216C159.96 198.533 160.467 198.011 161.118 197.648C161.779 197.275 162.536 197.088 163.39 197.088C164.222 197.088 164.958 197.269 165.598 197.632C166.238 197.995 166.728 198.496 167.07 199.136C167.422 199.765 167.598 200.48 167.598 201.28ZM166.094 200.976C166.094 200.421 165.971 199.947 165.726 199.552C165.48 199.147 165.144 198.843 164.718 198.64C164.302 198.427 163.838 198.32 163.326 198.32C162.59 198.32 161.96 198.555 161.438 199.024C160.926 199.493 160.632 200.144 160.558 200.976H166.094ZM171.076 198.656C171.332 198.155 171.694 197.765 172.164 197.488C172.644 197.211 173.225 197.072 173.908 197.072V198.576H173.524C171.892 198.576 171.076 199.461 171.076 201.232V206H169.62V197.232H171.076V198.656ZM185.494 190.928L181.11 208.72H179.67L184.038 190.928H185.494ZM202.673 197.072C203.356 197.072 203.964 197.216 204.497 197.504C205.03 197.781 205.452 198.203 205.761 198.768C206.07 199.333 206.225 200.021 206.225 200.832V206H204.785V201.04C204.785 200.165 204.566 199.499 204.129 199.04C203.702 198.571 203.121 198.336 202.385 198.336C201.628 198.336 201.025 198.581 200.577 199.072C200.129 199.552 199.905 200.251 199.905 201.168V206H198.465V201.04C198.465 200.165 198.246 199.499 197.809 199.04C197.382 198.571 196.801 198.336 196.065 198.336C195.308 198.336 194.705 198.581 194.257 199.072C193.809 199.552 193.585 200.251 193.585 201.168V206H192.129V197.232H193.585V198.496C193.873 198.037 194.257 197.685 194.737 197.44C195.228 197.195 195.766 197.072 196.353 197.072C197.089 197.072 197.74 197.237 198.305 197.568C198.87 197.899 199.292 198.384 199.569 199.024C199.814 198.405 200.22 197.925 200.785 197.584C201.35 197.243 201.98 197.072 202.673 197.072ZM212.537 206.144C211.716 206.144 210.969 205.957 210.297 205.584C209.636 205.211 209.113 204.683 208.729 204C208.356 203.307 208.169 202.507 208.169 201.6C208.169 200.704 208.361 199.915 208.745 199.232C209.14 198.539 209.673 198.011 210.345 197.648C211.017 197.275 211.769 197.088 212.601 197.088C213.433 197.088 214.185 197.275 214.857 197.648C215.529 198.011 216.057 198.533 216.441 199.216C216.836 199.899 217.033 200.693 217.033 201.6C217.033 202.507 216.831 203.307 216.425 204C216.031 204.683 215.492 205.211 214.809 205.584C214.127 205.957 213.369 206.144 212.537 206.144ZM212.537 204.864C213.06 204.864 213.551 204.741 214.009 204.496C214.468 204.251 214.836 203.883 215.113 203.392C215.401 202.901 215.545 202.304 215.545 201.6C215.545 200.896 215.407 200.299 215.129 199.808C214.852 199.317 214.489 198.955 214.041 198.72C213.593 198.475 213.108 198.352 212.585 198.352C212.052 198.352 211.561 198.475 211.113 198.72C210.676 198.955 210.324 199.317 210.057 199.808C209.791 200.299 209.657 200.896 209.657 201.6C209.657 202.315 209.785 202.917 210.041 203.408C210.308 203.899 210.66 204.267 211.097 204.512C211.535 204.747 212.015 204.864 212.537 204.864ZM223.32 197.072C224.386 197.072 225.25 197.397 225.912 198.048C226.573 198.688 226.904 199.616 226.904 200.832V206H225.464V201.04C225.464 200.165 225.245 199.499 224.808 199.04C224.37 198.571 223.773 198.336 223.016 198.336C222.248 198.336 221.634 198.576 221.176 199.056C220.728 199.536 220.504 200.235 220.504 201.152V206H219.048V197.232H220.504V198.48C220.792 198.032 221.181 197.685 221.672 197.44C222.173 197.195 222.722 197.072 223.32 197.072ZM231.158 198.432V203.6C231.158 204.027 231.249 204.331 231.43 204.512C231.611 204.683 231.926 204.768 232.374 204.768H233.446V206H232.134C231.323 206 230.715 205.813 230.31 205.44C229.905 205.067 229.702 204.453 229.702 203.6V198.432H228.566V197.232H229.702V195.024H231.158V197.232H233.446V198.432H231.158ZM239.662 197.072C240.323 197.072 240.921 197.216 241.454 197.504C241.987 197.781 242.403 198.203 242.702 198.768C243.011 199.333 243.166 200.021 243.166 200.832V206H241.726V201.04C241.726 200.165 241.507 199.499 241.07 199.04C240.633 198.571 240.035 198.336 239.278 198.336C238.51 198.336 237.897 198.576 237.438 199.056C236.99 199.536 236.766 200.235 236.766 201.152V206H235.31V194.16H236.766V198.48C237.054 198.032 237.449 197.685 237.95 197.44C238.462 197.195 239.033 197.072 239.662 197.072Z" fill="#AFAFAF"/>
<path d="M94.6309 182.5C94.6309 173.785 96.3029 166.92 99.6469 161.904C103.042 156.888 108.488 154.38 115.987 154.38C123.486 154.38 128.907 156.888 132.251 161.904C135.646 166.92 137.343 173.785 137.343 182.5C137.343 191.316 135.646 198.232 132.251 203.248C128.907 208.264 123.486 210.772 115.987 210.772C108.488 210.772 103.042 208.264 99.6469 203.248C96.3029 198.232 94.6309 191.316 94.6309 182.5ZM124.575 182.5C124.575 177.383 124.018 173.456 122.903 170.72C121.788 167.933 119.483 166.54 115.987 166.54C112.491 166.54 110.186 167.933 109.071 170.72C107.956 173.456 107.399 177.383 107.399 182.5C107.399 185.945 107.602 188.808 108.007 191.088C108.412 193.317 109.223 195.141 110.439 196.56C111.706 197.928 113.555 198.612 115.987 198.612C118.419 198.612 120.243 197.928 121.459 196.56C122.726 195.141 123.562 193.317 123.967 191.088C124.372 188.808 124.575 185.945 124.575 182.5Z" fill="#02897A"/>
<rect x="99" y="386" width="139" height="44" rx="8" fill="#02897A"/>
<path d="M124.596 414.18C123.612 414.18 122.706 414.018 121.878 413.694C121.05 413.37 120.33 412.92 119.718 412.344C119.106 411.756 118.632 411.072 118.296 410.292C117.96 409.5 117.792 408.636 117.792 407.7C117.792 406.764 117.96 405.906 118.296 405.126C118.632 404.334 119.106 403.65 119.718 403.074C120.33 402.486 121.05 402.03 121.878 401.706C122.706 401.382 123.606 401.22 124.578 401.22C125.562 401.22 126.462 401.382 127.278 401.706C128.106 402.03 128.826 402.486 129.438 403.074C130.05 403.65 130.524 404.334 130.86 405.126C131.196 405.906 131.364 406.764 131.364 407.7C131.364 408.636 131.196 409.5 130.86 410.292C130.524 411.084 130.05 411.768 129.438 412.344C128.826 412.92 128.106 413.37 127.278 413.694C126.462 414.018 125.568 414.18 124.596 414.18ZM124.578 412.128C125.214 412.128 125.802 412.02 126.342 411.804C126.882 411.588 127.35 411.282 127.746 410.886C128.142 410.478 128.448 410.01 128.664 409.482C128.892 408.942 129.006 408.348 129.006 407.7C129.006 407.052 128.892 406.464 128.664 405.936C128.448 405.396 128.142 404.928 127.746 404.532C127.35 404.124 126.882 403.812 126.342 403.596C125.802 403.38 125.214 403.272 124.578 403.272C123.942 403.272 123.354 403.38 122.814 403.596C122.286 403.812 121.818 404.124 121.41 404.532C121.014 404.928 120.702 405.396 120.474 405.936C120.258 406.464 120.15 407.052 120.15 407.7C120.15 408.336 120.258 408.924 120.474 409.464C120.702 410.004 121.014 410.478 121.41 410.886C121.806 411.282 122.274 411.588 122.814 411.804C123.354 412.02 123.942 412.128 124.578 412.128ZM133.628 414V404.388H135.77V407.034L135.518 406.26C135.806 405.612 136.256 405.12 136.868 404.784C137.492 404.448 138.266 404.28 139.19 404.28V406.422C139.094 406.398 139.004 406.386 138.92 406.386C138.836 406.374 138.752 406.368 138.668 406.368C137.816 406.368 137.138 406.62 136.634 407.124C136.13 407.616 135.878 408.354 135.878 409.338V414H133.628ZM145.079 414.126C144.155 414.126 143.321 413.922 142.577 413.514C141.845 413.094 141.269 412.518 140.849 411.786C140.429 411.054 140.219 410.19 140.219 409.194C140.219 408.198 140.429 407.334 140.849 406.602C141.269 405.87 141.845 405.3 142.577 404.892C143.321 404.484 144.155 404.28 145.079 404.28C145.883 404.28 146.603 404.46 147.239 404.82C147.875 405.168 148.379 405.702 148.751 406.422C149.123 407.142 149.309 408.066 149.309 409.194C149.309 410.31 149.129 411.234 148.769 411.966C148.409 412.686 147.911 413.226 147.275 413.586C146.639 413.946 145.907 414.126 145.079 414.126ZM145.349 412.2C145.889 412.2 146.369 412.08 146.789 411.84C147.221 411.6 147.563 411.252 147.815 410.796C148.079 410.34 148.211 409.806 148.211 409.194C148.211 408.57 148.079 408.036 147.815 407.592C147.563 407.136 147.221 406.788 146.789 406.548C146.369 406.308 145.889 406.188 145.349 406.188C144.809 406.188 144.323 406.308 143.891 406.548C143.471 406.788 143.129 407.136 142.865 407.592C142.613 408.036 142.487 408.57 142.487 409.194C142.487 409.806 142.613 410.34 142.865 410.796C143.129 411.252 143.471 411.6 143.891 411.84C144.323 412.08 144.809 412.2 145.349 412.2ZM148.265 414V411.732L148.355 409.176L148.175 406.62V400.644H150.407V414H148.265ZM157.887 414.126C156.819 414.126 155.883 413.916 155.079 413.496C154.287 413.064 153.669 412.476 153.225 411.732C152.793 410.988 152.577 410.142 152.577 409.194C152.577 408.234 152.787 407.388 153.207 406.656C153.639 405.912 154.227 405.33 154.971 404.91C155.727 404.49 156.585 404.28 157.545 404.28C158.481 404.28 159.315 404.484 160.047 404.892C160.779 405.3 161.355 405.876 161.775 406.62C162.195 407.364 162.405 408.24 162.405 409.248C162.405 409.344 162.399 409.452 162.387 409.572C162.387 409.692 162.381 409.806 162.369 409.914H154.359V408.42H161.181L160.299 408.888C160.311 408.336 160.197 407.85 159.957 407.43C159.717 407.01 159.387 406.68 158.967 406.44C158.559 406.2 158.085 406.08 157.545 406.08C156.993 406.08 156.507 406.2 156.087 406.44C155.679 406.68 155.355 407.016 155.115 407.448C154.887 407.868 154.773 408.366 154.773 408.942V409.302C154.773 409.878 154.905 410.388 155.169 410.832C155.433 411.276 155.805 411.618 156.285 411.858C156.765 412.098 157.317 412.218 157.941 412.218C158.481 412.218 158.967 412.134 159.399 411.966C159.831 411.798 160.215 411.534 160.551 411.174L161.757 412.56C161.325 413.064 160.779 413.454 160.119 413.73C159.471 413.994 158.727 414.126 157.887 414.126ZM164.566 414V404.388H166.708V407.034L166.456 406.26C166.744 405.612 167.194 405.12 167.806 404.784C168.43 404.448 169.204 404.28 170.128 404.28V406.422C170.032 406.398 169.942 406.386 169.858 406.386C169.774 406.374 169.69 406.368 169.606 406.368C168.754 406.368 168.076 406.62 167.572 407.124C167.068 407.616 166.816 408.354 166.816 409.338V414H164.566ZM177.315 414V401.4H179.241L187.143 411.102H186.189V401.4H188.511V414H186.585L178.683 404.298H179.637V414H177.315ZM195.991 414.126C195.007 414.126 194.131 413.916 193.363 413.496C192.595 413.064 191.989 412.476 191.545 411.732C191.101 410.988 190.879 410.142 190.879 409.194C190.879 408.234 191.101 407.388 191.545 406.656C191.989 405.912 192.595 405.33 193.363 404.91C194.131 404.49 195.007 404.28 195.991 404.28C196.987 404.28 197.869 404.49 198.637 404.91C199.417 405.33 200.023 405.906 200.455 406.638C200.899 407.37 201.121 408.222 201.121 409.194C201.121 410.142 200.899 410.988 200.455 411.732C200.023 412.476 199.417 413.064 198.637 413.496C197.869 413.916 196.987 414.126 195.991 414.126ZM195.991 412.2C196.543 412.2 197.035 412.08 197.467 411.84C197.899 411.6 198.235 411.252 198.475 410.796C198.727 410.34 198.853 409.806 198.853 409.194C198.853 408.57 198.727 408.036 198.475 407.592C198.235 407.136 197.899 406.788 197.467 406.548C197.035 406.308 196.549 406.188 196.009 406.188C195.457 406.188 194.965 406.308 194.533 406.548C194.113 406.788 193.777 407.136 193.525 407.592C193.273 408.036 193.147 408.57 193.147 409.194C193.147 409.806 193.273 410.34 193.525 410.796C193.777 411.252 194.113 411.6 194.533 411.84C194.965 412.08 195.451 412.2 195.991 412.2ZM205.133 414L201.605 404.388H203.729L206.753 412.866H205.745L208.913 404.388H210.803L213.881 412.866H212.891L216.005 404.388H218.003L214.457 414H212.297L209.489 406.494H210.155L207.293 414H205.133Z" fill="white"/>
<path d="M112.386 261.182C112.386 262.424 112.159 263.492 111.705 264.386C111.25 265.277 110.627 265.962 109.835 266.443C109.047 266.92 108.152 267.159 107.148 267.159C106.14 267.159 105.241 266.92 104.449 266.443C103.661 265.962 103.04 265.275 102.585 264.381C102.131 263.487 101.903 262.42 101.903 261.182C101.903 259.939 102.131 258.873 102.585 257.983C103.04 257.089 103.661 256.403 104.449 255.926C105.241 255.445 106.14 255.205 107.148 255.205C108.152 255.205 109.047 255.445 109.835 255.926C110.627 256.403 111.25 257.089 111.705 257.983C112.159 258.873 112.386 259.939 112.386 261.182ZM110.648 261.182C110.648 260.235 110.494 259.437 110.188 258.79C109.884 258.138 109.468 257.646 108.938 257.312C108.411 256.975 107.814 256.807 107.148 256.807C106.477 256.807 105.879 256.975 105.352 257.312C104.826 257.646 104.409 258.138 104.102 258.79C103.799 259.437 103.648 260.235 103.648 261.182C103.648 262.129 103.799 262.928 104.102 263.58C104.409 264.227 104.826 264.72 105.352 265.057C105.879 265.39 106.477 265.557 107.148 265.557C107.814 265.557 108.411 265.39 108.938 265.057C109.468 264.72 109.884 264.227 110.188 263.58C110.494 262.928 110.648 262.129 110.648 261.182ZM116.338 261.818V267H114.639V258.273H116.27V259.693H116.378C116.578 259.231 116.893 258.86 117.321 258.58C117.753 258.299 118.296 258.159 118.951 258.159C119.546 258.159 120.067 258.284 120.514 258.534C120.961 258.78 121.307 259.148 121.554 259.636C121.8 260.125 121.923 260.729 121.923 261.449V267H120.224V261.653C120.224 261.021 120.059 260.527 119.73 260.17C119.4 259.811 118.948 259.631 118.372 259.631C117.978 259.631 117.628 259.716 117.321 259.886C117.018 260.057 116.777 260.307 116.599 260.636C116.425 260.962 116.338 261.356 116.338 261.818ZM126.1 255.364V267H124.401V255.364H126.1ZM129.66 270.273C129.406 270.273 129.175 270.252 128.966 270.21C128.758 270.172 128.603 270.131 128.501 270.085L128.91 268.693C129.22 268.777 129.497 268.813 129.739 268.801C129.982 268.79 130.196 268.699 130.381 268.528C130.571 268.358 130.737 268.08 130.881 267.693L131.091 267.114L127.898 258.273H129.716L131.927 265.045H132.018L134.228 258.273H136.052L132.455 268.165C132.288 268.619 132.076 269.004 131.819 269.318C131.561 269.636 131.254 269.875 130.898 270.034C130.542 270.193 130.129 270.273 129.66 270.273ZM142.26 267V265.727L146.197 261.648C146.618 261.205 146.964 260.816 147.237 260.483C147.514 260.146 147.72 259.826 147.857 259.523C147.993 259.22 148.061 258.898 148.061 258.557C148.061 258.17 147.97 257.837 147.788 257.557C147.607 257.273 147.358 257.055 147.044 256.903C146.73 256.748 146.375 256.67 145.982 256.67C145.565 256.67 145.201 256.756 144.891 256.926C144.58 257.097 144.341 257.337 144.175 257.648C144.008 257.958 143.925 258.322 143.925 258.739H142.249C142.249 258.03 142.411 257.411 142.737 256.881C143.063 256.35 143.51 255.939 144.078 255.648C144.646 255.352 145.292 255.205 146.016 255.205C146.747 255.205 147.391 255.35 147.947 255.642C148.508 255.93 148.946 256.324 149.26 256.824C149.574 257.32 149.732 257.881 149.732 258.506C149.732 258.938 149.65 259.36 149.487 259.773C149.328 260.186 149.05 260.646 148.652 261.153C148.254 261.657 147.701 262.269 146.993 262.989L144.68 265.409V265.494H149.919V267H142.26ZM166.974 261.182C166.974 262.424 166.747 263.492 166.292 264.386C165.838 265.277 165.214 265.962 164.423 266.443C163.635 266.92 162.739 267.159 161.735 267.159C160.728 267.159 159.828 266.92 159.036 266.443C158.248 265.962 157.627 265.275 157.173 264.381C156.718 263.487 156.491 262.42 156.491 261.182C156.491 259.939 156.718 258.873 157.173 257.983C157.627 257.089 158.248 256.403 159.036 255.926C159.828 255.445 160.728 255.205 161.735 255.205C162.739 255.205 163.635 255.445 164.423 255.926C165.214 256.403 165.838 257.089 166.292 257.983C166.747 258.873 166.974 259.939 166.974 261.182ZM165.235 261.182C165.235 260.235 165.082 259.437 164.775 258.79C164.472 258.138 164.055 257.646 163.525 257.312C162.998 256.975 162.402 256.807 161.735 256.807C161.065 256.807 160.466 256.975 159.94 257.312C159.413 257.646 158.997 258.138 158.69 258.79C158.387 259.437 158.235 260.235 158.235 261.182C158.235 262.129 158.387 262.928 158.69 263.58C158.997 264.227 159.413 264.72 159.94 265.057C160.466 265.39 161.065 265.557 161.735 265.557C162.402 265.557 162.998 265.39 163.525 265.057C164.055 264.72 164.472 264.227 164.775 263.58C165.082 262.928 165.235 262.129 165.235 261.182ZM169.226 270.273V258.273H170.886V259.688H171.028C171.126 259.506 171.268 259.295 171.454 259.057C171.639 258.818 171.897 258.61 172.226 258.432C172.556 258.25 172.992 258.159 173.533 258.159C174.238 258.159 174.867 258.337 175.42 258.693C175.973 259.049 176.406 259.562 176.721 260.233C177.039 260.903 177.198 261.71 177.198 262.653C177.198 263.597 177.041 264.405 176.726 265.08C176.412 265.75 175.98 266.267 175.431 266.631C174.882 266.991 174.255 267.17 173.55 267.17C173.02 267.17 172.586 267.081 172.249 266.903C171.916 266.725 171.654 266.517 171.465 266.278C171.276 266.04 171.13 265.828 171.028 265.642H170.925V270.273H169.226ZM170.891 262.636C170.891 263.25 170.98 263.788 171.158 264.25C171.336 264.712 171.594 265.074 171.931 265.335C172.268 265.593 172.681 265.722 173.17 265.722C173.677 265.722 174.101 265.587 174.442 265.318C174.783 265.045 175.041 264.676 175.215 264.21C175.393 263.744 175.482 263.22 175.482 262.636C175.482 262.061 175.395 261.544 175.221 261.085C175.05 260.627 174.793 260.265 174.448 260C174.107 259.735 173.681 259.602 173.17 259.602C172.677 259.602 172.261 259.729 171.92 259.983C171.582 260.237 171.327 260.591 171.153 261.045C170.978 261.5 170.891 262.03 170.891 262.636ZM187.497 267.176C186.637 267.176 185.897 266.992 185.276 266.625C184.658 266.254 184.181 265.733 183.844 265.062C183.51 264.388 183.344 263.598 183.344 262.693C183.344 261.799 183.51 261.011 183.844 260.33C184.181 259.648 184.651 259.116 185.253 258.733C185.859 258.35 186.567 258.159 187.378 258.159C187.87 258.159 188.348 258.241 188.81 258.403C189.272 258.566 189.687 258.822 190.054 259.17C190.421 259.519 190.711 259.972 190.923 260.528C191.135 261.081 191.241 261.754 191.241 262.545V263.148H184.304V261.875H189.577C189.577 261.428 189.486 261.032 189.304 260.688C189.122 260.339 188.866 260.064 188.537 259.864C188.211 259.663 187.829 259.562 187.389 259.562C186.912 259.562 186.495 259.68 186.139 259.915C185.787 260.146 185.514 260.449 185.321 260.824C185.132 261.195 185.037 261.598 185.037 262.034V263.028C185.037 263.612 185.139 264.108 185.344 264.517C185.552 264.926 185.842 265.239 186.213 265.455C186.584 265.667 187.018 265.773 187.514 265.773C187.836 265.773 188.13 265.727 188.395 265.636C188.66 265.542 188.889 265.402 189.082 265.216C189.276 265.03 189.423 264.801 189.526 264.528L191.134 264.818C191.005 265.292 190.774 265.706 190.44 266.062C190.111 266.415 189.696 266.689 189.196 266.886C188.7 267.08 188.134 267.176 187.497 267.176ZM193.326 267V258.273H194.968V259.659H195.059C195.218 259.189 195.499 258.82 195.9 258.551C196.306 258.278 196.764 258.142 197.275 258.142C197.381 258.142 197.506 258.146 197.65 258.153C197.798 258.161 197.914 258.17 197.997 258.182V259.807C197.929 259.788 197.807 259.767 197.633 259.744C197.459 259.718 197.285 259.705 197.111 259.705C196.709 259.705 196.351 259.79 196.037 259.96C195.726 260.127 195.48 260.36 195.298 260.659C195.116 260.955 195.025 261.292 195.025 261.67V267H193.326ZM202.129 267.193C201.576 267.193 201.076 267.091 200.629 266.886C200.182 266.678 199.828 266.377 199.566 265.983C199.309 265.589 199.18 265.106 199.18 264.534C199.18 264.042 199.275 263.636 199.464 263.318C199.653 263 199.909 262.748 200.231 262.562C200.553 262.377 200.913 262.237 201.311 262.142C201.708 262.047 202.114 261.975 202.526 261.926C203.049 261.866 203.473 261.816 203.799 261.778C204.125 261.737 204.362 261.67 204.509 261.58C204.657 261.489 204.731 261.341 204.731 261.136V261.097C204.731 260.6 204.591 260.216 204.311 259.943C204.034 259.67 203.621 259.534 203.072 259.534C202.5 259.534 202.049 259.661 201.72 259.915C201.394 260.165 201.168 260.443 201.043 260.75L199.447 260.386C199.636 259.856 199.913 259.428 200.276 259.102C200.644 258.773 201.066 258.534 201.543 258.386C202.021 258.235 202.523 258.159 203.049 258.159C203.398 258.159 203.767 258.201 204.157 258.284C204.551 258.364 204.918 258.511 205.259 258.727C205.604 258.943 205.886 259.252 206.106 259.653C206.326 260.051 206.436 260.568 206.436 261.205V267H204.776V265.807H204.708C204.598 266.027 204.434 266.242 204.214 266.455C203.994 266.667 203.712 266.843 203.367 266.983C203.023 267.123 202.61 267.193 202.129 267.193ZM202.498 265.83C202.968 265.83 203.369 265.737 203.703 265.551C204.04 265.366 204.295 265.123 204.47 264.824C204.648 264.521 204.737 264.197 204.737 263.852V262.727C204.676 262.788 204.559 262.845 204.384 262.898C204.214 262.947 204.019 262.991 203.799 263.028C203.579 263.062 203.365 263.095 203.157 263.125C202.949 263.152 202.775 263.174 202.634 263.193C202.305 263.235 202.004 263.305 201.731 263.403C201.462 263.502 201.246 263.644 201.083 263.83C200.924 264.011 200.845 264.254 200.845 264.557C200.845 264.977 201 265.295 201.311 265.511C201.621 265.723 202.017 265.83 202.498 265.83ZM212.972 258.273V259.636H208.205V258.273H212.972ZM209.484 256.182H211.182V264.438C211.182 264.767 211.232 265.015 211.33 265.182C211.429 265.345 211.555 265.456 211.711 265.517C211.87 265.574 212.042 265.602 212.228 265.602C212.364 265.602 212.484 265.593 212.586 265.574C212.688 265.555 212.768 265.54 212.824 265.528L213.131 266.932C213.033 266.97 212.893 267.008 212.711 267.045C212.529 267.087 212.302 267.11 212.029 267.114C211.582 267.121 211.165 267.042 210.779 266.875C210.393 266.708 210.08 266.451 209.841 266.102C209.603 265.754 209.484 265.316 209.484 264.79V256.182ZM218.634 267.176C217.816 267.176 217.102 266.989 216.492 266.614C215.882 266.239 215.408 265.714 215.071 265.04C214.734 264.366 214.566 263.578 214.566 262.676C214.566 261.771 214.734 260.979 215.071 260.301C215.408 259.623 215.882 259.097 216.492 258.722C217.102 258.347 217.816 258.159 218.634 258.159C219.452 258.159 220.166 258.347 220.776 258.722C221.386 259.097 221.859 259.623 222.196 260.301C222.533 260.979 222.702 261.771 222.702 262.676C222.702 263.578 222.533 264.366 222.196 265.04C221.859 265.714 221.386 266.239 220.776 266.614C220.166 266.989 219.452 267.176 218.634 267.176ZM218.639 265.75C219.17 265.75 219.609 265.61 219.958 265.33C220.306 265.049 220.564 264.676 220.73 264.21C220.901 263.744 220.986 263.231 220.986 262.67C220.986 262.114 220.901 261.602 220.73 261.136C220.564 260.667 220.306 260.29 219.958 260.006C219.609 259.722 219.17 259.58 218.639 259.58C218.105 259.58 217.662 259.722 217.31 260.006C216.961 260.29 216.702 260.667 216.532 261.136C216.365 261.602 216.282 262.114 216.282 262.67C216.282 263.231 216.365 263.744 216.532 264.21C216.702 264.676 216.961 265.049 217.31 265.33C217.662 265.61 218.105 265.75 218.639 265.75ZM224.798 267V258.273H226.44V259.659H226.531C226.69 259.189 226.971 258.82 227.372 258.551C227.777 258.278 228.236 258.142 228.747 258.142C228.853 258.142 228.978 258.146 229.122 258.153C229.27 258.161 229.385 258.17 229.469 258.182V259.807C229.401 259.788 229.279 259.767 229.105 259.744C228.931 259.718 228.757 259.705 228.582 259.705C228.181 259.705 227.823 259.79 227.509 259.96C227.198 260.127 226.952 260.36 226.77 260.659C226.588 260.955 226.497 261.292 226.497 261.67V267H224.798ZM237.679 260.403L236.139 260.676C236.075 260.479 235.972 260.292 235.832 260.114C235.696 259.936 235.51 259.79 235.275 259.676C235.04 259.562 234.747 259.506 234.395 259.506C233.914 259.506 233.512 259.614 233.19 259.83C232.868 260.042 232.707 260.316 232.707 260.653C232.707 260.945 232.815 261.18 233.031 261.358C233.247 261.536 233.595 261.682 234.076 261.795L235.463 262.114C236.266 262.299 236.864 262.585 237.258 262.972C237.652 263.358 237.849 263.86 237.849 264.477C237.849 265 237.698 265.466 237.395 265.875C237.095 266.28 236.677 266.598 236.139 266.83C235.605 267.061 234.986 267.176 234.281 267.176C233.304 267.176 232.506 266.968 231.889 266.551C231.271 266.131 230.893 265.534 230.753 264.761L232.395 264.511C232.497 264.939 232.707 265.263 233.025 265.483C233.343 265.699 233.758 265.807 234.27 265.807C234.826 265.807 235.271 265.691 235.605 265.46C235.938 265.225 236.105 264.939 236.105 264.602C236.105 264.33 236.003 264.1 235.798 263.915C235.597 263.729 235.289 263.589 234.872 263.494L233.395 263.17C232.58 262.985 231.978 262.689 231.588 262.284C231.201 261.879 231.008 261.366 231.008 260.744C231.008 260.229 231.152 259.778 231.44 259.392C231.728 259.006 232.126 258.705 232.633 258.489C233.141 258.269 233.722 258.159 234.378 258.159C235.321 258.159 236.063 258.364 236.605 258.773C237.146 259.178 237.504 259.722 237.679 260.403Z" fill="#22343D"/>
<path d="M126.67 293.364V305H125.057L119.142 296.466H119.034V305H117.278V293.364H118.903L124.824 301.909H124.932V293.364H126.67ZM132.971 305.176C132.153 305.176 131.439 304.989 130.829 304.614C130.219 304.239 129.746 303.714 129.409 303.04C129.072 302.366 128.903 301.578 128.903 300.676C128.903 299.771 129.072 298.979 129.409 298.301C129.746 297.623 130.219 297.097 130.829 296.722C131.439 296.347 132.153 296.159 132.971 296.159C133.789 296.159 134.504 296.347 135.113 296.722C135.723 297.097 136.197 297.623 136.534 298.301C136.871 298.979 137.039 299.771 137.039 300.676C137.039 301.578 136.871 302.366 136.534 303.04C136.197 303.714 135.723 304.239 135.113 304.614C134.504 304.989 133.789 305.176 132.971 305.176ZM132.977 303.75C133.507 303.75 133.947 303.61 134.295 303.33C134.644 303.049 134.901 302.676 135.068 302.21C135.238 301.744 135.324 301.231 135.324 300.67C135.324 300.114 135.238 299.602 135.068 299.136C134.901 298.667 134.644 298.29 134.295 298.006C133.947 297.722 133.507 297.58 132.977 297.58C132.443 297.58 132 297.722 131.647 298.006C131.299 298.29 131.039 298.667 130.869 299.136C130.702 299.602 130.619 300.114 130.619 300.67C130.619 301.231 130.702 301.744 130.869 302.21C131.039 302.676 131.299 303.049 131.647 303.33C132 303.61 132.443 303.75 132.977 303.75ZM143.21 296.273V297.636H138.443V296.273H143.21ZM139.721 294.182H141.42V302.438C141.42 302.767 141.469 303.015 141.568 303.182C141.666 303.345 141.793 303.456 141.948 303.517C142.107 303.574 142.28 303.602 142.465 303.602C142.602 303.602 142.721 303.593 142.823 303.574C142.926 303.555 143.005 303.54 143.062 303.528L143.369 304.932C143.27 304.97 143.13 305.008 142.948 305.045C142.766 305.087 142.539 305.11 142.266 305.114C141.82 305.121 141.403 305.042 141.016 304.875C140.63 304.708 140.318 304.451 140.079 304.102C139.84 303.754 139.721 303.316 139.721 302.79V294.182ZM145.289 305V296.273H146.988V305H145.289ZM146.147 294.926C145.851 294.926 145.598 294.828 145.386 294.631C145.177 294.43 145.073 294.191 145.073 293.915C145.073 293.634 145.177 293.396 145.386 293.199C145.598 292.998 145.851 292.898 146.147 292.898C146.442 292.898 146.694 292.998 146.903 293.199C147.115 293.396 147.221 293.634 147.221 293.915C147.221 294.191 147.115 294.43 146.903 294.631C146.694 294.828 146.442 294.926 146.147 294.926ZM153.627 296.273V297.636H148.695V296.273H153.627ZM150.047 305V295.261C150.047 294.716 150.166 294.263 150.405 293.903C150.644 293.54 150.96 293.269 151.354 293.091C151.748 292.909 152.176 292.818 152.638 292.818C152.979 292.818 153.271 292.847 153.513 292.903C153.755 292.956 153.935 293.006 154.053 293.051L153.655 294.426C153.576 294.403 153.473 294.377 153.348 294.347C153.223 294.312 153.072 294.295 152.894 294.295C152.481 294.295 152.185 294.398 152.007 294.602C151.833 294.807 151.746 295.102 151.746 295.489V305H150.047ZM155.58 305V296.273H157.278V305H155.58ZM156.438 294.926C156.142 294.926 155.888 294.828 155.676 294.631C155.468 294.43 155.364 294.191 155.364 293.915C155.364 293.634 155.468 293.396 155.676 293.199C155.888 292.998 156.142 292.898 156.438 292.898C156.733 292.898 156.985 292.998 157.193 293.199C157.405 293.396 157.511 293.634 157.511 293.915C157.511 294.191 157.405 294.43 157.193 294.631C156.985 294.828 156.733 294.926 156.438 294.926ZM163.44 305.176C162.595 305.176 161.868 304.985 161.258 304.602C160.652 304.216 160.186 303.684 159.861 303.006C159.535 302.328 159.372 301.551 159.372 300.676C159.372 299.79 159.539 299.008 159.872 298.33C160.205 297.648 160.675 297.116 161.281 296.733C161.887 296.35 162.601 296.159 163.423 296.159C164.086 296.159 164.677 296.282 165.196 296.528C165.715 296.771 166.133 297.112 166.451 297.551C166.773 297.991 166.965 298.504 167.025 299.091H165.372C165.281 298.682 165.073 298.33 164.747 298.034C164.425 297.739 163.993 297.591 163.451 297.591C162.978 297.591 162.563 297.716 162.207 297.966C161.855 298.212 161.58 298.564 161.383 299.023C161.186 299.477 161.088 300.015 161.088 300.636C161.088 301.273 161.184 301.822 161.378 302.284C161.571 302.746 161.843 303.104 162.196 303.358C162.552 303.612 162.97 303.739 163.451 303.739C163.773 303.739 164.065 303.68 164.326 303.562C164.592 303.441 164.813 303.269 164.991 303.045C165.173 302.822 165.3 302.553 165.372 302.239H167.025C166.965 302.803 166.781 303.307 166.474 303.75C166.167 304.193 165.756 304.542 165.241 304.795C164.73 305.049 164.129 305.176 163.44 305.176ZM171.582 305.193C171.029 305.193 170.529 305.091 170.082 304.886C169.635 304.678 169.281 304.377 169.019 303.983C168.762 303.589 168.633 303.106 168.633 302.534C168.633 302.042 168.728 301.636 168.917 301.318C169.106 301 169.362 300.748 169.684 300.562C170.006 300.377 170.366 300.237 170.764 300.142C171.161 300.047 171.567 299.975 171.98 299.926C172.502 299.866 172.927 299.816 173.252 299.778C173.578 299.737 173.815 299.67 173.963 299.58C174.11 299.489 174.184 299.341 174.184 299.136V299.097C174.184 298.6 174.044 298.216 173.764 297.943C173.487 297.67 173.074 297.534 172.525 297.534C171.953 297.534 171.502 297.661 171.173 297.915C170.847 298.165 170.622 298.443 170.497 298.75L168.9 298.386C169.089 297.856 169.366 297.428 169.73 297.102C170.097 296.773 170.519 296.534 170.997 296.386C171.474 296.235 171.976 296.159 172.502 296.159C172.851 296.159 173.22 296.201 173.61 296.284C174.004 296.364 174.372 296.511 174.713 296.727C175.057 296.943 175.339 297.252 175.559 297.653C175.779 298.051 175.889 298.568 175.889 299.205V305H174.23V303.807H174.161C174.052 304.027 173.887 304.242 173.667 304.455C173.447 304.667 173.165 304.843 172.82 304.983C172.476 305.123 172.063 305.193 171.582 305.193ZM171.951 303.83C172.421 303.83 172.822 303.737 173.156 303.551C173.493 303.366 173.748 303.123 173.923 302.824C174.101 302.521 174.19 302.197 174.19 301.852V300.727C174.129 300.788 174.012 300.845 173.838 300.898C173.667 300.947 173.472 300.991 173.252 301.028C173.033 301.062 172.819 301.095 172.61 301.125C172.402 301.152 172.228 301.174 172.088 301.193C171.758 301.235 171.457 301.305 171.184 301.403C170.915 301.502 170.699 301.644 170.536 301.83C170.377 302.011 170.298 302.254 170.298 302.557C170.298 302.977 170.453 303.295 170.764 303.511C171.074 303.723 171.47 303.83 171.951 303.83ZM182.425 296.273V297.636H177.658V296.273H182.425ZM178.937 294.182H180.636V302.438C180.636 302.767 180.685 303.015 180.783 303.182C180.882 303.345 181.009 303.456 181.164 303.517C181.323 303.574 181.495 303.602 181.681 303.602C181.817 303.602 181.937 303.593 182.039 303.574C182.141 303.555 182.221 303.54 182.278 303.528L182.584 304.932C182.486 304.97 182.346 305.008 182.164 305.045C181.982 305.087 181.755 305.11 181.482 305.114C181.035 305.121 180.618 305.042 180.232 304.875C179.846 304.708 179.533 304.451 179.295 304.102C179.056 303.754 178.937 303.316 178.937 302.79V294.182ZM184.505 305V296.273H186.203V305H184.505ZM185.363 294.926C185.067 294.926 184.813 294.828 184.601 294.631C184.393 294.43 184.289 294.191 184.289 293.915C184.289 293.634 184.393 293.396 184.601 293.199C184.813 292.998 185.067 292.898 185.363 292.898C185.658 292.898 185.91 292.998 186.118 293.199C186.33 293.396 186.436 293.634 186.436 293.915C186.436 294.191 186.33 294.43 186.118 294.631C185.91 294.828 185.658 294.926 185.363 294.926ZM192.365 305.176C191.547 305.176 190.833 304.989 190.223 304.614C189.613 304.239 189.14 303.714 188.803 303.04C188.465 302.366 188.297 301.578 188.297 300.676C188.297 299.771 188.465 298.979 188.803 298.301C189.14 297.623 189.613 297.097 190.223 296.722C190.833 296.347 191.547 296.159 192.365 296.159C193.183 296.159 193.897 296.347 194.507 296.722C195.117 297.097 195.59 297.623 195.928 298.301C196.265 298.979 196.433 299.771 196.433 300.676C196.433 301.578 196.265 302.366 195.928 303.04C195.59 303.714 195.117 304.239 194.507 304.614C193.897 304.989 193.183 305.176 192.365 305.176ZM192.371 303.75C192.901 303.75 193.34 303.61 193.689 303.33C194.037 303.049 194.295 302.676 194.462 302.21C194.632 301.744 194.717 301.231 194.717 300.67C194.717 300.114 194.632 299.602 194.462 299.136C194.295 298.667 194.037 298.29 193.689 298.006C193.34 297.722 192.901 297.58 192.371 297.58C191.837 297.58 191.393 297.722 191.041 298.006C190.693 298.29 190.433 298.667 190.263 299.136C190.096 299.602 190.013 300.114 190.013 300.67C190.013 301.231 190.096 301.744 190.263 302.21C190.433 302.676 190.693 303.049 191.041 303.33C191.393 303.61 191.837 303.75 192.371 303.75ZM200.228 299.818V305H198.53V296.273H200.16V297.693H200.268C200.469 297.231 200.783 296.86 201.211 296.58C201.643 296.299 202.187 296.159 202.842 296.159C203.437 296.159 203.958 296.284 204.405 296.534C204.852 296.78 205.198 297.148 205.444 297.636C205.691 298.125 205.814 298.729 205.814 299.449V305H204.115V299.653C204.115 299.021 203.95 298.527 203.62 298.17C203.291 297.811 202.838 297.631 202.262 297.631C201.869 297.631 201.518 297.716 201.211 297.886C200.908 298.057 200.668 298.307 200.49 298.636C200.316 298.962 200.228 299.356 200.228 299.818ZM214.832 298.403L213.292 298.676C213.228 298.479 213.125 298.292 212.985 298.114C212.849 297.936 212.663 297.79 212.428 297.676C212.194 297.562 211.9 297.506 211.548 297.506C211.067 297.506 210.665 297.614 210.343 297.83C210.021 298.042 209.86 298.316 209.86 298.653C209.86 298.945 209.968 299.18 210.184 299.358C210.4 299.536 210.748 299.682 211.23 299.795L212.616 300.114C213.419 300.299 214.017 300.585 214.411 300.972C214.805 301.358 215.002 301.86 215.002 302.477C215.002 303 214.851 303.466 214.548 303.875C214.248 304.28 213.83 304.598 213.292 304.83C212.758 305.061 212.139 305.176 211.434 305.176C210.457 305.176 209.659 304.968 209.042 304.551C208.425 304.131 208.046 303.534 207.906 302.761L209.548 302.511C209.65 302.939 209.86 303.263 210.178 303.483C210.497 303.699 210.911 303.807 211.423 303.807C211.98 303.807 212.425 303.691 212.758 303.46C213.091 303.225 213.258 302.939 213.258 302.602C213.258 302.33 213.156 302.1 212.951 301.915C212.75 301.729 212.442 301.589 212.025 301.494L210.548 301.17C209.733 300.985 209.131 300.689 208.741 300.284C208.355 299.879 208.161 299.366 208.161 298.744C208.161 298.229 208.305 297.778 208.593 297.392C208.881 297.006 209.279 296.705 209.786 296.489C210.294 296.269 210.875 296.159 211.531 296.159C212.474 296.159 213.216 296.364 213.758 296.773C214.3 297.178 214.658 297.722 214.832 298.403Z" fill="#22343D"/>
<path d="M110.278 343V331.364H112.034V341.489H117.307V343H110.278ZM121.913 343.193C121.36 343.193 120.86 343.091 120.413 342.886C119.966 342.678 119.612 342.377 119.351 341.983C119.093 341.589 118.964 341.106 118.964 340.534C118.964 340.042 119.059 339.636 119.248 339.318C119.438 339 119.693 338.748 120.015 338.562C120.337 338.377 120.697 338.237 121.095 338.142C121.493 338.047 121.898 337.975 122.311 337.926C122.834 337.866 123.258 337.816 123.584 337.778C123.909 337.737 124.146 337.67 124.294 337.58C124.441 337.489 124.515 337.341 124.515 337.136V337.097C124.515 336.6 124.375 336.216 124.095 335.943C123.818 335.67 123.405 335.534 122.856 335.534C122.284 335.534 121.834 335.661 121.504 335.915C121.178 336.165 120.953 336.443 120.828 336.75L119.231 336.386C119.421 335.856 119.697 335.428 120.061 335.102C120.428 334.773 120.851 334.534 121.328 334.386C121.805 334.235 122.307 334.159 122.834 334.159C123.182 334.159 123.551 334.201 123.941 334.284C124.335 334.364 124.703 334.511 125.044 334.727C125.388 334.943 125.671 335.252 125.89 335.653C126.11 336.051 126.22 336.568 126.22 337.205V343H124.561V341.807H124.493C124.383 342.027 124.218 342.242 123.998 342.455C123.779 342.667 123.496 342.843 123.152 342.983C122.807 343.123 122.394 343.193 121.913 343.193ZM122.282 341.83C122.752 341.83 123.154 341.737 123.487 341.551C123.824 341.366 124.08 341.123 124.254 340.824C124.432 340.521 124.521 340.197 124.521 339.852V338.727C124.46 338.788 124.343 338.845 124.169 338.898C123.998 338.947 123.803 338.991 123.584 339.028C123.364 339.062 123.15 339.095 122.941 339.125C122.733 339.152 122.559 339.174 122.419 339.193C122.089 339.235 121.788 339.305 121.515 339.403C121.246 339.502 121.03 339.644 120.868 339.83C120.709 340.011 120.629 340.254 120.629 340.557C120.629 340.977 120.784 341.295 121.095 341.511C121.405 341.723 121.801 341.83 122.282 341.83ZM130.382 337.818V343H128.683V334.273H130.313V335.693H130.421C130.622 335.231 130.936 334.86 131.364 334.58C131.796 334.299 132.34 334.159 132.995 334.159C133.59 334.159 134.111 334.284 134.558 334.534C135.005 334.78 135.351 335.148 135.597 335.636C135.844 336.125 135.967 336.729 135.967 337.449V343H134.268V337.653C134.268 337.021 134.103 336.527 133.774 336.17C133.444 335.811 132.991 335.631 132.416 335.631C132.022 335.631 131.671 335.716 131.364 335.886C131.061 336.057 130.821 336.307 130.643 336.636C130.469 336.962 130.382 337.356 130.382 337.818ZM141.712 343.17C141.008 343.17 140.379 342.991 139.826 342.631C139.277 342.267 138.845 341.75 138.53 341.08C138.22 340.405 138.064 339.597 138.064 338.653C138.064 337.71 138.222 336.903 138.536 336.233C138.854 335.562 139.29 335.049 139.843 334.693C140.396 334.337 141.023 334.159 141.724 334.159C142.265 334.159 142.701 334.25 143.03 334.432C143.364 334.61 143.621 334.818 143.803 335.057C143.989 335.295 144.133 335.506 144.235 335.688H144.337V331.364H146.036V343H144.377V341.642H144.235C144.133 341.828 143.985 342.04 143.792 342.278C143.602 342.517 143.341 342.725 143.008 342.903C142.674 343.081 142.243 343.17 141.712 343.17ZM142.087 341.722C142.576 341.722 142.989 341.593 143.326 341.335C143.667 341.074 143.924 340.712 144.099 340.25C144.277 339.788 144.366 339.25 144.366 338.636C144.366 338.03 144.279 337.5 144.104 337.045C143.93 336.591 143.674 336.237 143.337 335.983C143 335.729 142.583 335.602 142.087 335.602C141.576 335.602 141.15 335.735 140.809 336C140.468 336.265 140.21 336.627 140.036 337.085C139.866 337.544 139.78 338.061 139.78 338.636C139.78 339.22 139.868 339.744 140.042 340.21C140.216 340.676 140.474 341.045 140.814 341.318C141.159 341.587 141.583 341.722 142.087 341.722ZM148.661 343V334.273H150.36V343H148.661ZM149.519 332.926C149.223 332.926 148.97 332.828 148.757 332.631C148.549 332.43 148.445 332.191 148.445 331.915C148.445 331.634 148.549 331.396 148.757 331.199C148.97 330.998 149.223 330.898 149.519 330.898C149.814 330.898 150.066 330.998 150.274 331.199C150.487 331.396 150.593 331.634 150.593 331.915C150.593 332.191 150.487 332.43 150.274 332.631C150.066 332.828 149.814 332.926 149.519 332.926ZM154.544 337.818V343H152.845V334.273H154.476V335.693H154.584C154.785 335.231 155.099 334.86 155.527 334.58C155.959 334.299 156.502 334.159 157.158 334.159C157.752 334.159 158.273 334.284 158.72 334.534C159.167 334.78 159.514 335.148 159.76 335.636C160.006 336.125 160.129 336.729 160.129 337.449V343H158.43V337.653C158.43 337.021 158.266 336.527 157.936 336.17C157.607 335.811 157.154 335.631 156.578 335.631C156.184 335.631 155.834 335.716 155.527 335.886C155.224 336.057 154.983 336.307 154.805 336.636C154.631 336.962 154.544 337.356 154.544 337.818ZM166.267 346.455C165.574 346.455 164.977 346.364 164.477 346.182C163.981 346 163.575 345.759 163.261 345.46C162.947 345.161 162.712 344.833 162.557 344.477L164.017 343.875C164.119 344.042 164.255 344.218 164.426 344.403C164.6 344.593 164.835 344.754 165.13 344.886C165.43 345.019 165.814 345.085 166.284 345.085C166.928 345.085 167.46 344.928 167.88 344.614C168.301 344.303 168.511 343.807 168.511 343.125V341.409H168.403C168.301 341.595 168.153 341.801 167.96 342.028C167.771 342.256 167.509 342.453 167.176 342.619C166.843 342.786 166.409 342.869 165.875 342.869C165.185 342.869 164.564 342.708 164.011 342.386C163.462 342.061 163.026 341.581 162.704 340.949C162.386 340.312 162.227 339.53 162.227 338.602C162.227 337.674 162.384 336.879 162.699 336.216C163.017 335.553 163.452 335.045 164.005 334.693C164.558 334.337 165.185 334.159 165.886 334.159C166.428 334.159 166.865 334.25 167.199 334.432C167.532 334.61 167.791 334.818 167.977 335.057C168.166 335.295 168.312 335.506 168.414 335.688H168.539V334.273H170.204V343.193C170.204 343.943 170.03 344.559 169.682 345.04C169.333 345.521 168.861 345.877 168.267 346.108C167.676 346.339 167.009 346.455 166.267 346.455ZM166.25 341.46C166.738 341.46 167.151 341.347 167.488 341.119C167.829 340.888 168.087 340.559 168.261 340.131C168.439 339.699 168.528 339.182 168.528 338.58C168.528 337.992 168.441 337.475 168.267 337.028C168.093 336.581 167.837 336.233 167.5 335.983C167.163 335.729 166.746 335.602 166.25 335.602C165.738 335.602 165.312 335.735 164.971 336C164.63 336.261 164.373 336.617 164.199 337.068C164.028 337.519 163.943 338.023 163.943 338.58C163.943 339.152 164.03 339.653 164.204 340.085C164.379 340.517 164.636 340.854 164.977 341.097C165.322 341.339 165.746 341.46 166.25 341.46ZM177.253 343V331.364H181.401C182.306 331.364 183.056 331.528 183.651 331.858C184.246 332.187 184.691 332.638 184.986 333.21C185.282 333.778 185.43 334.419 185.43 335.131C185.43 335.847 185.28 336.491 184.981 337.062C184.685 337.631 184.238 338.081 183.64 338.415C183.045 338.744 182.297 338.909 181.395 338.909H178.543V337.42H181.236C181.808 337.42 182.272 337.322 182.628 337.125C182.984 336.924 183.246 336.652 183.412 336.307C183.579 335.962 183.662 335.57 183.662 335.131C183.662 334.691 183.579 334.301 183.412 333.96C183.246 333.619 182.983 333.352 182.623 333.159C182.267 332.966 181.797 332.869 181.214 332.869H179.009V343H177.253ZM190.013 343.193C189.46 343.193 188.96 343.091 188.513 342.886C188.066 342.678 187.712 342.377 187.451 341.983C187.193 341.589 187.064 341.106 187.064 340.534C187.064 340.042 187.159 339.636 187.348 339.318C187.538 339 187.793 338.748 188.115 338.562C188.437 338.377 188.797 338.237 189.195 338.142C189.593 338.047 189.998 337.975 190.411 337.926C190.934 337.866 191.358 337.816 191.684 337.778C192.009 337.737 192.246 337.67 192.394 337.58C192.541 337.489 192.615 337.341 192.615 337.136V337.097C192.615 336.6 192.475 336.216 192.195 335.943C191.918 335.67 191.505 335.534 190.956 335.534C190.384 335.534 189.934 335.661 189.604 335.915C189.278 336.165 189.053 336.443 188.928 336.75L187.331 336.386C187.521 335.856 187.797 335.428 188.161 335.102C188.528 334.773 188.951 334.534 189.428 334.386C189.905 334.235 190.407 334.159 190.934 334.159C191.282 334.159 191.651 334.201 192.041 334.284C192.435 334.364 192.803 334.511 193.144 334.727C193.488 334.943 193.771 335.252 193.99 335.653C194.21 336.051 194.32 336.568 194.32 337.205V343H192.661V341.807H192.593C192.483 342.027 192.318 342.242 192.098 342.455C191.879 342.667 191.596 342.843 191.252 342.983C190.907 343.123 190.494 343.193 190.013 343.193ZM190.382 341.83C190.852 341.83 191.254 341.737 191.587 341.551C191.924 341.366 192.18 341.123 192.354 340.824C192.532 340.521 192.621 340.197 192.621 339.852V338.727C192.56 338.788 192.443 338.845 192.269 338.898C192.098 338.947 191.903 338.991 191.684 339.028C191.464 339.062 191.25 339.095 191.041 339.125C190.833 339.152 190.659 339.174 190.519 339.193C190.189 339.235 189.888 339.305 189.615 339.403C189.346 339.502 189.13 339.644 188.968 339.83C188.809 340.011 188.729 340.254 188.729 340.557C188.729 340.977 188.884 341.295 189.195 341.511C189.505 341.723 189.901 341.83 190.382 341.83ZM200.442 346.455C199.749 346.455 199.152 346.364 198.652 346.182C198.156 346 197.75 345.759 197.436 345.46C197.122 345.161 196.887 344.833 196.732 344.477L198.192 343.875C198.294 344.042 198.43 344.218 198.601 344.403C198.775 344.593 199.01 344.754 199.305 344.886C199.605 345.019 199.989 345.085 200.459 345.085C201.103 345.085 201.635 344.928 202.055 344.614C202.476 344.303 202.686 343.807 202.686 343.125V341.409H202.578C202.476 341.595 202.328 341.801 202.135 342.028C201.946 342.256 201.684 342.453 201.351 342.619C201.018 342.786 200.584 342.869 200.05 342.869C199.36 342.869 198.739 342.708 198.186 342.386C197.637 342.061 197.201 341.581 196.879 340.949C196.561 340.312 196.402 339.53 196.402 338.602C196.402 337.674 196.559 336.879 196.874 336.216C197.192 335.553 197.627 335.045 198.18 334.693C198.733 334.337 199.36 334.159 200.061 334.159C200.603 334.159 201.04 334.25 201.374 334.432C201.707 334.61 201.966 334.818 202.152 335.057C202.341 335.295 202.487 335.506 202.589 335.688H202.714V334.273H204.379V343.193C204.379 343.943 204.205 344.559 203.857 345.04C203.508 345.521 203.036 345.877 202.442 346.108C201.851 346.339 201.184 346.455 200.442 346.455ZM200.425 341.46C200.913 341.46 201.326 341.347 201.663 341.119C202.004 340.888 202.262 340.559 202.436 340.131C202.614 339.699 202.703 339.182 202.703 338.58C202.703 337.992 202.616 337.475 202.442 337.028C202.268 336.581 202.012 336.233 201.675 335.983C201.338 335.729 200.921 335.602 200.425 335.602C199.913 335.602 199.487 335.735 199.146 336C198.805 336.261 198.548 336.617 198.374 337.068C198.203 337.519 198.118 338.023 198.118 338.58C198.118 339.152 198.205 339.653 198.379 340.085C198.554 340.517 198.811 340.854 199.152 341.097C199.497 341.339 199.921 341.46 200.425 341.46ZM210.619 343.176C209.759 343.176 209.019 342.992 208.397 342.625C207.78 342.254 207.303 341.733 206.966 341.062C206.632 340.388 206.466 339.598 206.466 338.693C206.466 337.799 206.632 337.011 206.966 336.33C207.303 335.648 207.772 335.116 208.375 334.733C208.981 334.35 209.689 334.159 210.5 334.159C210.992 334.159 211.469 334.241 211.932 334.403C212.394 334.566 212.808 334.822 213.176 335.17C213.543 335.519 213.833 335.972 214.045 336.528C214.257 337.081 214.363 337.754 214.363 338.545V339.148H207.426V337.875H212.699C212.699 337.428 212.608 337.032 212.426 336.688C212.244 336.339 211.988 336.064 211.659 335.864C211.333 335.663 210.95 335.562 210.511 335.562C210.034 335.562 209.617 335.68 209.261 335.915C208.909 336.146 208.636 336.449 208.443 336.824C208.254 337.195 208.159 337.598 208.159 338.034V339.028C208.159 339.612 208.261 340.108 208.466 340.517C208.674 340.926 208.964 341.239 209.335 341.455C209.706 341.667 210.14 341.773 210.636 341.773C210.958 341.773 211.252 341.727 211.517 341.636C211.782 341.542 212.011 341.402 212.204 341.216C212.397 341.03 212.545 340.801 212.647 340.528L214.255 340.818C214.127 341.292 213.896 341.706 213.562 342.062C213.233 342.415 212.818 342.689 212.318 342.886C211.822 343.08 211.255 343.176 210.619 343.176ZM222.988 336.403L221.448 336.676C221.384 336.479 221.282 336.292 221.141 336.114C221.005 335.936 220.82 335.79 220.585 335.676C220.35 335.562 220.056 335.506 219.704 335.506C219.223 335.506 218.821 335.614 218.499 335.83C218.177 336.042 218.016 336.316 218.016 336.653C218.016 336.945 218.124 337.18 218.34 337.358C218.556 337.536 218.905 337.682 219.386 337.795L220.772 338.114C221.575 338.299 222.174 338.585 222.568 338.972C222.962 339.358 223.159 339.86 223.159 340.477C223.159 341 223.007 341.466 222.704 341.875C222.405 342.28 221.986 342.598 221.448 342.83C220.914 343.061 220.295 343.176 219.59 343.176C218.613 343.176 217.816 342.968 217.198 342.551C216.581 342.131 216.202 341.534 216.062 340.761L217.704 340.511C217.806 340.939 218.016 341.263 218.335 341.483C218.653 341.699 219.068 341.807 219.579 341.807C220.136 341.807 220.581 341.691 220.914 341.46C221.248 341.225 221.414 340.939 221.414 340.602C221.414 340.33 221.312 340.1 221.107 339.915C220.907 339.729 220.598 339.589 220.181 339.494L218.704 339.17C217.89 338.985 217.287 338.689 216.897 338.284C216.511 337.879 216.318 337.366 216.318 336.744C216.318 336.229 216.462 335.778 216.749 335.392C217.037 335.006 217.435 334.705 217.943 334.489C218.45 334.269 219.032 334.159 219.687 334.159C220.63 334.159 221.373 334.364 221.914 334.773C222.456 335.178 222.814 335.722 222.988 336.403Z" fill="#22343D"/>
</g>
<defs>
<filter id="filter0_d_16_2" x="0" y="0" width="338.649" height="472" filterUnits="userSpaceOnUse" color-interpolation-filters="sRGB">
<feFlood flood-opacity="0" result="BackgroundImageFix"/>
<feColorMatrix in="SourceAlpha" type="matrix" values="0 0 0 0 0 0 0 0 0 0 0 0 0 0 0 0 0 0 127 0" result="hardAlpha"/>
<feOffset dy="2"/>
<feGaussianBlur stdDeviation="4"/>
<feColorMatrix type="matrix" values="0 0 0 0 0 0 0 0 0 0 0 0 0 0 0 0 0 0 0.25 0"/>
<feBlend mode="normal" in2="BackgroundImageFix" result="effect1_dropShadow_16_2"/>
<feBlend mode="normal" in="SourceGraphic" in2="effect1_dropShadow_16_2" result="shape"/>
</filter>
<clipPath id="clip0_16_2">
<rect width="16" height="29" fill="white" transform="translate(149 158)"/>
</clipPath>
</defs>
</svg>
